<mxfile host="app.diagrams.net" modified="2023-10-25T18:57:08.647Z" agent="Mozilla/5.0 (Windows NT 10.0; Win64; x64) AppleWebKit/537.36 (KHTML, like Gecko) Chrome/118.0.0.0 Safari/537.36" version="22.0.8" etag="65zTpoyTAGhABd5kvhSB" type="github">
  <diagram name="Page-1" id="De3L53LFw_2b2_Xett07">
    <mxGraphModel>
      <root>
        <mxCell id="0" />
        <mxCell id="1" parent="0" />
      </root>
    </mxGraphModel>
  </diagram>
</mxfile>
